IKResults
version=1
nRows=11
nColumns=63
inDegrees=yes

Units are S.I. units (second, meters, Newtons, ...)
If the header above contains a line with 'inDegrees', this indicates whether rotational values are in degrees (yes) or radians (no).

endheader
time	pelvis_tilt	pelvis_list	pelvis_rotation	pelvis_tx	pelvis_ty	pelvis_tz	hip_flexion_r	hip_adduction_r	hip_rotation_r	knee_angle_r	knee_angle_r_beta	ankle_angle_r	subtalar_angle_r	mtp_angle_r	hip_flexion_l	hip_adduction_l	hip_rotation_l	knee_angle_l	knee_angle_l_beta	ankle_angle_l	subtalar_angle_l	mtp_angle_l	L5_S1_Flex_Ext	L5_S1_Lat_Bending	L5_S1_axial_rotation	L4_L5_Flex_Ext	L4_L5_Lat_Bending	L4_L5_axial_rotation	L3_L4_Flex_Ext	L3_L4_Lat_Bending	L3_L4_axial_rotation	L2_L3_Flex_Ext	L2_L3_Lat_Bending	L2_L3_axial_rotation	L1_L2_Flex_Ext	L1_L2_Lat_Bending	L1_L2_axial_rotation	L1_T12_Flex_Ext	L1_T12_Lat_Bending	L1_T12_axial_rotation	Abs_r3	Abs_r2	Abs_r1	Abs_t1	Abs_t2	neck_flexion	neck_bending	neck_rotation	arm_flex_r	arm_add_r	arm_rot_r	elbow_flex_r	pro_sup_r	wrist_flex_r	wrist_dev_r	arm_flex_l	arm_add_l	arm_rot_l	elbow_flex_l	pro_sup_l	wrist_flex_l	wrist_dev_l
      2.03333333	    -77.89455258	     -1.10799641	      2.55368465	     -0.27919726	      0.58484857	     -0.40448780	    145.98264419	     -2.65084611	     16.66358818	     80.17066124	      1.39924200	     24.62136186	    -16.57922636	      0.00000000	    143.55142206	     -9.36162332	     -3.35169372	     79.99652191	      1.39620270	      0.00000000	      0.00000000	      0.00000000	     10.31224678	     -0.25634953	     -0.45730530	     19.15087349	     -0.34094487	     -0.48588688	     16.94199023	     -0.62328824	     -0.48588688	     11.78586684	     -0.62328824	     -0.40014214	      9.57595236	     -0.52274796	     -0.37156056	      5.89241781	     -0.39708542	     -0.34297897	     73.65934750	     -2.89987714	     -2.54339488	      0.00000000	      0.00000000	     12.23223773	      1.14289290	     -7.36028482	    -25.79693273	    -17.98065146	      6.35767895	     34.22886512	     89.99559364	      0.00000000	      0.00000000	    -26.47086878	    -22.87842139	     11.82290270	     39.01431448	     89.99559364	      0.00000000	      0.00000000
      2.06666667	    -75.58346713	     -1.44229550	      2.39399725	     -0.30672390	      0.54287017	     -0.40296819	    149.58626660	     -1.72814301	     17.47750664	     84.62155125	      1.47692469	     22.46448037	    -16.56243905	      0.00000000	    147.89877973	    -10.21730565	     -2.91309854	     85.03086569	      1.48406857	      0.00000000	      0.00000000	      0.00000000	      9.87794368	     -0.24276867	     -0.51983242	     18.34432921	     -0.32288233	     -0.55232194	     16.22847367	     -0.59026773	     -0.55232194	     11.28950183	     -0.59026773	     -0.45485336	      9.17265850	     -0.49505386	     -0.42236384	      5.64425702	     -0.37604866	     -0.38987431	     70.55716392	     -2.74624770	     -2.89115195	      0.00000000	      0.00000000	     12.48142702	      1.28623154	     -7.51536281	    -24.74260384	    -17.91923479	      6.68402039	     34.36055142	     89.99559364	      0.00000000	      0.00000000	    -25.66018423	    -22.94688365	     12.41765953	     38.57244893	     89.99559364	      0.00000000	      0.00000000
      2.10000000	    -69.27110168	     -1.52493718	      1.85567222	     -0.33111137	      0.49987145	     -0.40053541	    149.82598939	     -0.48026494	     17.90190465	     88.99694797	      1.55328977	     19.69939223	    -16.27392871	      0.00000000	    149.15765479	    -11.37230310	     -1.77406171	     90.28393678	      1.57575196	      0.00000000	      0.00000000	      0.00000000	      8.83273342	     -0.21943869	     -0.49931664	     16.40326924	     -0.29185346	     -0.53052393	     14.51129774	     -0.53354324	     -0.53052393	     10.09493103	     -0.53354324	     -0.43690206	      8.20207625	     -0.44747938	     -0.40569477	      5.04702388	     -0.33991054	     -0.37448748	     63.09133155	     -2.48233439	     -2.77704933	      0.00000000	      0.00000000	     13.24067291	      1.67168560	     -7.90573537	    -22.50062261	    -17.60369825	      7.12795000	     33.97960290	     89.99559364	      0.00000000	      0.00000000	    -23.80922467	    -22.92902579	     13.14341380	     37.70178797	     89.99559364	      0.00000000	      0.00000000
      2.13333333	    -62.73793406	     -1.34007636	      2.19551192	     -0.35313722	      0.45860357	     -0.39919159	    149.87192622	      0.31224968	     18.94663784	     92.83373035	      1.62025425	     16.79656773	    -15.51204247	      0.00000000	    149.55101021	    -12.20451891	     -1.51458500	     94.49287777	      1.64921184	      0.00000000	      0.00000000	      0.00000000	      7.87847895	     -0.28742102	     -0.57141595	     14.63112326	     -0.38226996	     -0.60712944	     12.94355307	     -0.69883547	     -0.60712944	      9.00431359	     -0.69883547	     -0.49998895	      7.31595555	     -0.58610894	     -0.46427546	      4.50176287	     -0.44521516	     -0.42856196	     56.27518729	     -3.25136406	     -3.17804407	      0.00000000	      0.00000000	     12.76193638	      2.21239091	     -8.33419252	    -20.80504754	    -17.07780574	      7.35266569	     33.87348266	     89.99559364	      0.00000000	      0.00000000	    -22.70370850	    -23.07252264	     13.52763898	     37.13745705	     89.99559364	      0.00000000	      0.00000000
      2.16666667	    -56.48019953	      0.11958782	      2.39678889	     -0.37404154	      0.41984064	     -0.39556680	    149.89368759	      2.23378746	     20.32067050	     95.54447413	      1.66756566	     12.72214927	    -15.25674217	      0.00000000	    149.54044607	    -14.34095912	     -1.83322621	     97.67477327	      1.70474639	      0.00000000	      0.00000000	      0.00000000	      7.05981510	     -0.52115459	     -0.50635055	     13.11078262	     -0.69313561	     -0.53799746	     11.59857023	     -1.26713528	     -0.53799746	      8.06866268	     -1.26713528	     -0.44305673	      6.55574430	     -1.06273845	     -0.41140982	      4.03397835	     -0.80726847	     -0.37976291	     50.42755328	     -5.89540501	     -2.81616984	      0.00000000	      0.00000000	     12.41989084	      3.77506453	     -9.49320057	    -19.52227666	    -15.72957295	      7.81222523	     33.94766493	     89.99559364	      0.00000000	      0.00000000	    -22.65988278	    -24.69043346	     14.37428906	     38.26701997	     89.99559364	      0.00000000	      0.00000000
      2.20000000	    -50.83083033	      1.22207994	      2.62272361	     -0.39282455	      0.38454444	     -0.39253906	    149.90576313	      3.62173326	     21.42556624	     97.38881012	      1.69975539	      8.98815669	    -14.51850326	      0.00000000	    149.54135751	    -16.11916203	     -2.00244248	    100.01180216	      1.74553524	      0.00000000	      0.00000000	      0.00000000	      6.49729767	     -0.71543974	     -0.50920567	     12.06613150	     -0.95153485	     -0.54103103	     10.67441034	     -1.73952018	     -0.54103103	      7.42576150	     -1.73952018	     -0.44555496	      6.03339061	     -1.45892471	     -0.41372961	      3.71255589	     -1.10821615	     -0.38190425	     46.40954751	     -8.09319740	     -2.83204919	      0.00000000	      0.00000000	     10.36395626	      5.21626949	    -10.21919477	    -19.28151424	    -14.47506572	      6.89497737	     34.65798943	     89.99559364	      0.00000000	      0.00000000	    -23.84835890	    -25.59569408	     13.06479284	     39.57679374	     89.99559364	      0.00000000	      0.00000000
      2.23333333	    -45.88160850	      2.43882237	      2.61856356	     -0.40995310	      0.35338909	     -0.38877942	    149.91509327	      5.08602362	     22.23901625	     98.29387952	      1.71555183	      5.23049212	    -13.92649568	      0.00000000	    149.50648576	    -18.21144333	     -2.11828585	    101.55423797	      1.77245582	      0.00000000	      0.00000000	      0.00000000	      6.19038378	     -0.92151679	     -0.47607707	     11.49616172	     -1.22561733	     -0.50583189	     10.17018152	     -2.24057592	     -0.50583189	      7.07498963	     -2.24057592	     -0.41656744	      5.74839038	     -1.87915703	     -0.38681262	      3.53718529	     -1.42742950	     -0.35705780	     44.21729232	    -10.42438220	     -2.64779784	      0.00000000	      0.00000000	      7.10043411	      6.90208268	    -10.73728924	    -19.84135722	    -13.10101474	      5.37503010	     35.79002722	     89.99559364	      0.00000000	      0.00000000	    -26.33403382	    -26.45006968	     10.24697574	     41.66386385	     89.99559364	      0.00000000	      0.00000000
      2.26666667	    -41.74942836	      3.58142098	      2.59569821	     -0.42572400	      0.32699545	     -0.38478851	    149.92309408	      6.38499574	     22.93170721	     98.34347493	      1.71641744	      1.71007872	    -13.53572849	      0.00000000	    149.46568415	    -20.33182392	     -2.27455895	    102.28602359	      1.78522789	      0.00000000	      0.00000000	      0.00000000	      6.15129974	     -1.12227803	     -0.45737307	     11.42357875	     -1.49262978	     -0.48595889	     10.10597034	     -2.72870679	     -0.48595889	      7.03032047	     -2.72870679	     -0.40020144	      5.71209694	     -2.28854935	     -0.37161562	      3.51485267	     -1.73840866	     -0.34302981	     43.93811891	    -12.69543349	     -2.54377182	      0.00000000	      0.00000000	      2.66798712	      8.66709164	    -10.86729180	    -21.08832068	    -11.77259246	      3.47938379	     37.34543050	     89.99559364	      0.00000000	      0.00000000	    -30.11195098	    -27.05232603	      5.86786594	     44.50173570	     89.99559364	      0.00000000	      0.00000000
      2.30000000	    -38.44373144	      4.47168064	      2.50680305	     -0.44044850	      0.30577274	     -0.38061590	    149.93004803	      7.43308278	     23.41193539	     97.68264456	      1.70488377	     -1.51187356	    -13.29799785	      0.00000000	    149.41091981	    -22.36742048	     -2.36054238	    102.22472388	      1.78415801	      0.00000000	      0.00000000	      0.00000000	      6.36022878	     -1.29160390	     -0.42579221	     11.81158086	     -1.71783318	     -0.45240422	     10.44921985	     -3.14040572	     -0.45240422	      7.26910547	     -3.14040572	     -0.37256818	      5.90610844	     -2.63383867	     -0.34595617	      3.63423472	     -2.00069444	     -0.31934416	     45.43047812	    -14.61088161	     -2.36812852	      0.00000000	      0.00000000	     -2.51707771	     10.31297184	    -10.70459151	    -22.92812349	    -10.74963991	      1.79358059	     39.24699758	     89.99559364	      0.00000000	      0.00000000	    -34.79018326	    -27.45371838	      0.85324349	     47.93065243	     89.99559364	      0.00000000	      0.00000000
      2.33333333	    -35.85310297	      4.86536106	      2.17743659	     -0.45497078	      0.28977656	     -0.37681882	    149.93378587	      7.89939680	     23.21436714	     96.25009865	      1.67988113	     -4.70173890	    -13.32690797	      0.00000000	    149.46567846	    -24.13025643	     -2.19308781	    101.50550440	      1.77160526	      0.00000000	      0.00000000	      0.00000000	      6.76848218	     -1.37531343	     -0.35746856	     12.56974825	     -1.82916686	     -0.37981035	     11.11993937	     -3.34393707	     -0.37981035	      7.73569828	     -3.34393707	     -0.31278499	      6.28521255	     -2.80453915	     -0.29044321	      3.86751072	     -2.13036050	     -0.26810142	     48.34659134	    -15.55782058	     -1.98813291	      0.00000000	      0.00000000	     -8.12860466	     11.21320894	     -9.95337603	    -25.23313056	    -10.24585518	      0.04168904	     41.65245471	     89.99559364	      0.00000000	      0.00000000	    -39.65588109	    -27.51427756	     -4.05614361	     51.39259712	     89.99559364	      0.00000000	      0.00000000
      2.36666667	    -33.98745931	      4.80622338	      1.89399048	     -0.46942099	      0.27879780	     -0.37377765	    149.93565016	      7.84674203	     22.86135775	     94.26245253	      1.64519016	     -7.50329752	    -13.43441547	      0.00000000	    149.53571192	    -25.43416324	     -1.98316018	    100.03946239	      1.74601800	      0.00000000	      0.00000000	      0.00000000	      7.34637475	     -1.39873463	     -0.29331259	     13.64295254	     -1.86031706	     -0.31164463	     12.06935907	     -3.40088339	     -0.31164463	      8.39617170	     -3.40088339	     -0.25664852	      6.82184359	     -2.85229966	     -0.23831648	      4.19771853	     -2.16663995	     -0.21998444	     52.47442018	    -15.82276591	     -1.63131664	      0.00000000	      0.00000000	    -13.58656140	     11.69469199	     -9.31371333	    -27.86448332	    -10.19311542	     -1.69149199	     44.23576485	     89.99559364	      0.00000000	      0.00000000	    -44.64509494	    -27.42245507	     -8.78877619	     55.07859436	     89.99559364	      0.00000000	      0.00000000
